<svg version="1.0" xmlns="http://www.w3.org/2000/svg" xmlns:xlink="http://www.w3.org/1999/xlink" x="0px" y="0px"
	 viewBox="0 0 400 100" style="enable-background:new 0 0 400 100;" xml:space="preserve">
<g>
	<text class="title_brand" transform="matrix(1 0 0 1 110.4082 47.1189)"><tspan x="0" y="0" style="fill:#3D3F41; font-size:38.0829px;">TechMagazine</tspan></text>
</g>
<text class="slogan_brand" transform="matrix(1 0 0 1 110.4092 79.1848)" style="fill:#3D3F41 font-size:22.215px; letter-spacing:6;">News about tech</text>
<path class="element_inner" d="M38,37.4c-2.6,0-4.8-2.1-4.8-4.8s2.1-4.8,4.8-4.8s4.8,2.1,4.8,4.8
	S40.7,37.4,38,37.4z M52.3,32.7c0-1.7-0.3-3.3-0.8-4.8h23.1v31.8h-54v-27c0-1.7,0.2-3.2,0.7-4.8h3.3c-0.5,1.5-0.8,3.1-0.8,4.8
	C23.7,40.6,30.1,47,38,47S52.3,40.6,52.3,32.7z M51.9,54.9c0,1.1,0.9,2,2,2s2-0.9,2-2s-0.9-2-2-2S51.9,53.8,51.9,54.9z M66.6,44.2
	c1.1,0,2-0.9,2-2s-0.9-2-2-2c-1.1,0-2,0.9-2,2S65.5,44.2,66.6,44.2z"/>
<path style="opacity:0.8;fill:#231F20;" d="M38,15.2c-9.6,0-17.5,7.8-17.5,17.5v30.2c0,3.5,2.9,6.4,6.4,6.4h47.7
	c3.5,0,6.4-2.9,6.4-6.4V34.3c0-3.5-2.9-6.4-6.4-6.4H58.1c0.2,1,0.4,2.1,0.5,3.2h16c1.8,0,3.2,1.4,3.2,3.2v20.8l-7.2-10.1
	c0.5-0.8,0.9-1.7,0.9-2.7c0-2.6-2.1-4.8-4.8-4.8c-2.6,0-4.8,2.1-4.8,4.8c0,0.7,0.2,1.4,0.5,2L56,50.6c-0.6-0.3-1.3-0.5-2-0.5
	c-0.5,0-0.9,0.1-1.3,0.2l-3.2-4.5c3.7-3.2,6.1-7.9,6.1-13.2C55.5,23,47.7,15.2,38,15.2z M66.6,44.2c-1.1,0-2-0.9-2-2s0.9-2,2-2
	c1.1,0,2,0.9,2,2S67.7,44.2,66.6,44.2z M38,18.4c7.9,0,14.3,6.4,14.3,14.3c0,4.2-1.8,8-4.8,10.6l-5.6-7.9c0.5-0.8,0.9-1.7,0.9-2.7
	c0-2.6-2.1-4.8-4.8-4.8s-4.8,2.1-4.8,4.8s2.1,4.8,4.8,4.8c0.5,0,0.9-0.1,1.3-0.2l5.7,7.9c-2.1,1.2-4.4,1.8-7,1.8
	c-4.5,0-8.5-2.1-11.1-5.3v4.5c3,2.5,6.9,4,11.1,4c3.2,0,6.2-0.9,8.8-2.4l3.2,4.5c-0.5,0.8-0.9,1.7-0.9,2.7c0,2.6,2.1,4.8,4.8,4.8
	s4.8-2.1,4.8-4.8c0-0.7-0.2-1.4-0.5-2l6.4-6.4c0.6,0.3,1.3,0.5,2,0.5c0.5,0,0.9-0.1,1.3-0.2l9.8,13.7v2.4c0,1.8-1.4,3.2-3.2,3.2
	H26.9c-1.8,0-3.2-1.4-3.2-3.2V32.7C23.7,24.8,30.1,18.4,38,18.4z M55.9,54.9c0,1.1-0.9,2-2,2s-2-0.9-2-2s0.9-2,2-2
	S55.9,53.8,55.9,54.9z M36,32.7c0-1.1,0.9-2,2-2s2,0.9,2,2s-0.9,2-2,2S36,33.8,36,32.7z"/>
</svg>